<?xml version="1.0" encoding="utf-8"?>
<!-- Generator: Adobe Illustrator 27.5.0, SVG Export Plug-In . SVG Version: 6.00 Build 0)  -->
<svg version="1.1" xmlns="http://www.w3.org/2000/svg" xmlns:xlink="http://www.w3.org/1999/xlink" x="0px" y="0px"
	 viewBox="0 0 750 500" style="enable-background:new 0 0 750 500;" xml:space="preserve">
<g id="BACKGROUND">
	<rect style="fill:#FFFFFF;" width="750" height="500"/>
</g>
<g id="OBJECTS">
	<g>
		<g>
			<g>
				<g>
					<path style="fill:#070F5E;" d="M554.801,168.853l14.211,9.852v-76.903h21.606v286.882h-21.606V186.788l-4.51-3.848h-9.019
						c0,0-0.781-1.616,0-3.232h5.227l-5.909-5.037C554.801,174.67,553.083,171.436,554.801,168.853z"/>
					<g>
						<path style="fill:#1F2CB8;" d="M585.439,163.261v-7.839c0-0.877,1.363-0.879,1.363,0v7.839
							C586.802,164.138,585.439,164.14,585.439,163.261z"/>
						<path style="fill:#1F2CB8;" d="M578.394,144.455v-7.839c0-0.877,1.363-0.879,1.363,0v7.839
							C579.758,145.332,578.394,145.334,578.394,144.455z"/>
						<path style="fill:#1F2CB8;" d="M578.394,128.098v-7.839c0-0.877,1.363-0.879,1.363,0v7.839
							C579.758,128.975,578.394,128.977,578.394,128.098z"/>
						<path style="fill:#1F2CB8;" d="M585.211,257.661V168.65c0-1.548,1.363-1.551,1.363,0v89.011
							C586.575,259.209,585.211,259.212,585.211,257.661z"/>
						<path style="fill:#1F2CB8;" d="M579.758,151.332v27.835c0,0.877-1.363,0.879-1.363,0v-27.835
							C578.394,150.454,579.758,150.453,579.758,151.332z"/>
						<path style="fill:#1F2CB8;" d="M586.802,101.57v49.144c0,0.877-1.363,0.879-1.363,0V101.57H586.802z"/>
						<path style="fill:#1F2CB8;" d="M579.985,101.57v9.72c0,0.877-1.364,0.879-1.364,0v-9.72H579.985z"/>
						<path style="fill:#1F2CB8;" d="M580.213,183.598v23.859c0,0.877-1.363,0.879-1.363,0v-23.859
							C578.849,182.721,580.213,182.719,580.213,183.598z"/>
						<path style="fill:#1F2CB8;" d="M578.849,388.451V213.706c0-0.877,1.363-0.879,1.363,0v174.746H578.849z"/>
						<path style="fill:#1F2CB8;" d="M573.907,196.209v22.268c0,0.877-1.363,0.879-1.363,0v-22.268
							C572.544,195.332,573.907,195.33,573.907,196.209z"/>
						<path style="fill:#1F2CB8;" d="M573.907,224.501v41.693c0,1.643-1.363,1.645-1.363,0v-41.693
							C572.544,222.859,573.907,222.856,573.907,224.501z"/>
						<path style="fill:#1F2CB8;" d="M585.211,344.768v-89.011c0-1.548,1.363-1.551,1.363,0v89.011
							C586.575,346.316,585.211,346.319,585.211,344.768z"/>
						<path style="fill:#1F2CB8;" d="M573.907,311.608v41.693c0,1.643-1.363,1.645-1.363,0v-41.693
							C572.544,309.966,573.907,309.963,573.907,311.608z"/>
					</g>
				</g>
				<ellipse style="fill:#2F3DCC;" cx="579.815" cy="101.52" rx="10.803" ry="2.792"/>
				<ellipse style="fill:#2F3DCC;" cx="579.815" cy="101.52" rx="10.803" ry="2.792"/>
				<path style="fill:#1F2CB8;" d="M579.815,103.136c5.402,0,8.655-0.984,9.491-1.616c-0.837-0.632-4.09-1.616-9.491-1.616
					c-5.402,0-8.655,0.984-9.491,1.616C571.16,102.153,574.413,103.136,579.815,103.136z"/>
				<path style="fill:#2F3DCC;" d="M579.815,101.961c2.339,0,4.234-0.191,5.663-0.441c-1.429-0.25-3.324-0.441-5.663-0.441
					c-2.339,0-4.234,0.191-5.663,0.441C575.581,101.77,577.476,101.961,579.815,101.961z"/>
			</g>
			<g>
				<g>
					<g>
						<g>
							<path style="fill:#1F2CB8;" d="M211.108,125.389c7.284,3.381,20.129,9.25,23.744,10.872
								c30.881,13.847,65.286,21.632,102.26,23.138c34.614,1.407,69.801-2.691,104.584-12.188
								c14.706-4.014,29.458-9.989,43.723-15.768c25.385-10.281,51.634-20.913,79.437-21.447c0.013-0.001,0.024-0.001,0.036-0.001
								c0.957,0,1.743,0.767,1.762,1.729c0.018,0.973-0.755,1.778-1.729,1.796c-27.153,0.522-53.095,11.029-78.183,21.19
								c-14.36,5.817-29.211,11.831-44.117,15.901c-30.633,8.363-61.579,12.582-92.187,12.582c-4.498,0-8.989-0.091-13.47-0.273
								c-37.425-1.524-72.267-9.412-103.559-23.444c-3.061-1.373-15.277-6.947-22.301-10.188V125.389z"/>
						</g>
						<g>
							<path style="fill:#FFFFFF;" d="M558.692,110.314c2.047-0.154,4.099-0.278,6.164-0.318c0.013-0.001,0.024-0.001,0.036-0.001
								c0.957,0,1.744,0.767,1.762,1.729c0.018,0.973-0.755,1.778-1.729,1.796c-2.014,0.039-4.018,0.161-6.018,0.312
								C558.622,112.681,558.497,111.516,558.692,110.314z"/>
						</g>
					</g>
					<g>
						<path style="fill:#FFD74A;" d="M561.981,115.491h7.03v-7.03h-7.03C560.42,111.975,561.981,115.491,561.981,115.491z"/>
						<g>
							<path style="fill:#FFFFFF;" d="M562.74,108.46h0.979c-1.561,3.515,0,7.03,0,7.03h-0.979
								C562.74,115.491,561.179,111.975,562.74,108.46z"/>
						</g>
					</g>
				</g>
				<g>
					<g>
						<g>
							<path style="fill:#FFD74A;" d="M211.108,134.988c7.285,3.382,20.132,9.252,23.744,10.871
								c30.881,13.848,65.286,21.632,102.26,23.138c34.614,1.406,69.8-2.69,104.584-12.188c14.706-4.014,29.458-9.99,43.723-15.768
								c25.385-10.281,51.634-20.913,79.437-21.446l0.069,3.525c-27.153,0.522-53.095,11.029-78.183,21.19
								c-14.36,5.817-29.211,11.831-44.117,15.901c-30.633,8.363-61.578,12.582-92.187,12.582c-4.497,0-8.989-0.091-13.47-0.273
								c-37.425-1.524-72.267-9.412-103.558-23.444c-3.06-1.372-15.277-6.946-22.302-10.187V134.988z"/>
						</g>
						<g>
							<path style="fill:#FFFFFF;" d="M559.482,119.847c1.785-0.122,3.575-0.217,5.374-0.252l0.069,3.525
								c-1.782,0.034-3.555,0.13-5.326,0.253C559.285,122.211,559.179,121.025,559.482,119.847z"/>
						</g>
					</g>
					<g>
						<path style="fill:#1F2CB8;" d="M561.981,124.873h7.03v-7.03h-7.03C560.42,121.358,561.981,124.873,561.981,124.873z"/>
						<g>
							<path style="fill:#FFFFFF;" d="M562.74,117.842h0.979c-1.561,3.515,0,7.03,0,7.03h-0.979
								C562.74,124.873,561.179,121.358,562.74,117.842z"/>
						</g>
					</g>
				</g>
			</g>
		</g>
		<g>
			<path style="fill:#FFD74A;" d="M467.995,154.981c1.044-3.273,0.5-6.649-2.278-8.903c-1.411-1.145-2.143-1.026-2.263-3.047
				c-0.089-1.502,0.491-3.014,0.27-4.53c-0.21-1.433-0.764-2.625-1.644-3.788c-2.117-2.798-5.207-3.925-5.615-7.833
				c-0.023-0.219-0.033-0.438-0.049-0.657c0.003-0.125,0.019-0.248,0.019-0.374c0-8.408-6.816-15.224-15.224-15.224
				c-8.408,0-15.224,6.816-15.224,15.224c0,0.126,0.016,0.248,0.019,0.373c-0.016,0.219-0.027,0.438-0.049,0.657
				c-0.408,3.908-3.498,5.035-5.615,7.833c-0.88,1.163-1.434,2.355-1.644,3.788c-0.221,1.516,0.359,3.028,0.27,4.53
				c-0.119,2.022-0.852,1.903-2.263,3.047c-2.778,2.254-3.323,5.63-2.278,8.903H467.995z"/>
			<g>
				<path style="fill:#273199;" d="M461.337,201.399c-0.006-0.04-0.026-0.063-0.037-0.098c-0.476-12.407-1.142-41.712-1.858-46.494
					c-0.578-3.862-3.023-8.503-7.051-9.603c-1.559-0.426-17.844-0.426-19.403,0c-4.028,1.1-6.473,5.741-7.051,9.603
					c-0.716,4.783-1.382,34.088-1.858,46.494c-0.011,0.035-0.031,0.059-0.037,0.098c-0.528,3.41-5.624,9.296-4.724,8.981
					c3.598-1.26,8.125,1.897,11.13,3.788c6.893,4.338,19.281,2.93,24.482,0c3.094-1.743,7.572-5.021,11.17-3.761
					C467.001,210.722,461.865,204.809,461.337,201.399z"/>
				<g>
					<path style="fill:#FFA75E;" d="M441.21,152.06L441.21,152.06c-2.07,0-3.747-1.678-3.747-3.747v-10.052h7.494v10.052
						C444.957,150.383,443.279,152.06,441.21,152.06z"/>
					<path style="fill:#F79B4F;" d="M451.572,134.983c0,8.361-3.491,11.745-10.362,11.745c-6.871,0-10.94-3.383-10.94-11.745
						c0-8.361,4.07-15.14,10.94-15.14C448.08,119.843,451.572,126.622,451.572,134.983z"/>
					<path style="fill:#FFA75E;" d="M451.572,134.983c0,8.361-3.491,10.767-10.362,10.767c-6.871,0-10.94-2.406-10.94-10.767
						c0-8.361,4.07-15.14,10.94-15.14C448.08,119.843,451.572,126.622,451.572,134.983z"/>
					<path style="fill:#FFD74A;" d="M453.994,135.518c1.047-1.999,1.647-4.269,1.647-6.682c0-7.97-6.461-14.431-14.431-14.431
						c-7.97,0-14.431,6.461-14.431,14.431c0,2.413,0.6,4.683,1.647,6.682h4.344l0.481-2.881l0.543,2.881h10.114l0.64-3.521
						l0.896,3.521h2.031l0.199-1.902l0.284,1.902H453.994z"/>
				</g>
			</g>
		</g>
		<g>
			<path style="fill:#3542CF;" d="M220.678,157.789v-45.538c-41.625,0-75.369,33.744-75.369,75.369h45.538
				C190.847,171.145,204.203,157.789,220.678,157.789z"/>
			<path style="fill:#1783FF;" d="M220.678,112.251v45.538c16.475,0,29.831,13.356,29.831,29.831h45.538
				C296.048,145.995,262.304,112.251,220.678,112.251z"/>
			<path style="fill:#FFD74A;" d="M220.678,217.451v45.538c41.625,0,75.369-33.744,75.369-75.369H250.51
				C250.51,204.095,237.154,217.451,220.678,217.451z"/>
			<path style="fill:#FFD74A;" d="M190.847,187.62h-45.538c0,41.625,33.744,75.369,75.369,75.369v-45.538
				C204.203,217.451,190.847,204.095,190.847,187.62z"/>
		</g>
		<g>
			<path style="fill:#FFD74A;" d="M532.295,155.362c-4.281,4.281-6.256,9.981-5.97,15.587l-6.051,0.31
				c-0.37-7.252,2.213-14.627,7.752-20.166c5.193-5.193,11.998-7.789,18.804-7.789v6.037
				C541.57,149.342,536.309,151.348,532.295,155.362z"/>
			<g>
				<path style="fill:#FFD74A;" d="M535.321,170.625l-3.859,0.198c-0.212-4.161,1.254-8.392,4.432-11.571
					c2.98-2.98,6.885-4.469,10.79-4.469v4.008c-2.645,0.634-5.156,1.966-7.221,4.03
					C537.248,165.037,535.884,167.767,535.321,170.625z"/>
				<path style="fill:#FFD74A;" d="M546.685,164.352v5.691l-5.852,0.3C540.911,167.337,543.642,164.404,546.685,164.352z"/>
			</g>
		</g>
		<g>
			<g>
				<g>
					<g>
						<path style="fill:#142099;" d="M516.372,381.606H238.233c-0.784,0-1.419-0.635-1.419-1.419V189.694
							c0-4.229,3.428-7.658,7.658-7.658h265.661c4.229,0,7.658,3.428,7.658,7.658v190.493
							C517.791,380.971,517.155,381.606,516.372,381.606z"/>
						
							<rect x="287.411" y="151.226" transform="matrix(-1.836970e-16 1 -1 -1.836970e-16 659.1232 -95.4818)" style="fill:#F5F3F3;" width="179.783" height="261.19"/>
						<polygon style="fill:#B1C5F2;" points="413.278,191.929 246.708,191.929 246.708,371.712 413.278,371.712 507.898,371.712 
							507.898,191.929 						"/>
						<polygon style="fill:#DBE6FF;" points="246.708,198.667 246.708,371.712 413.278,371.712 507.898,371.712 500.28,202.667 
													"/>
					</g>
					<g>
						<path style="fill:#141B5E;" d="M542.742,392.819h-330.88c-3.522,0-6.378-2.855-6.378-6.378v-3.919
							c0-0.506,0.41-0.916,0.916-0.916h336.135c0.506,0,0.916,0.41,0.916,0.916v3.919
							C543.451,389.963,546.265,392.819,542.742,392.819z"/>
						<path style="fill:#DEDDDD;" d="M206.279,389.521c1.087,1.966,3.179,3.298,5.584,3.298h330.88c2.405,0-1.172-1.332-0.085-3.298
							H206.279z"/>
						<path style="fill:#DEDDDD;" d="M395.688,386.058h-36.771c-2.459,0-4.452-1.993-4.452-4.452l0,0h45.675l0,0
							C400.14,384.065,398.147,386.058,395.688,386.058z"/>
					</g>
					<g>
						<path style="fill:#D5D6DA;" d="M377.302,189.28c-0.915,0-1.66-0.745-1.66-1.66c0-0.915,0.745-1.66,1.66-1.66
							c0.916,0,1.661,0.745,1.661,1.66C378.963,188.535,378.218,189.28,377.302,189.28z M377.302,186.949
							c-0.37,0-0.67,0.301-0.67,0.671c0,0.37,0.3,0.671,0.67,0.671c0.37,0,0.672-0.301,0.672-0.671
							C377.974,187.25,377.672,186.949,377.302,186.949z"/>
					</g>
				</g>
			</g>
		</g>
		<g>
			<g>
				<g>
					<g>
						<g>
							<circle style="fill:none;stroke:#FFFFFF;stroke-miterlimit:10;" cx="319.211" cy="304.625" r="2.06"/>
							<path style="fill:none;stroke:#FFFFFF;stroke-miterlimit:10;" d="M319.211,306.686c-0.019,11.669-0.019,53.237-0.019,53.237"
								/>
						</g>
						<g>
							<path style="fill:none;stroke:#FFFFFF;stroke-miterlimit:10;" d="M325.392,322.501c-1.138,0-2.06,0.922-2.06,2.06
								c0,1.138,0.923,2.06,2.06,2.06c1.138,0,2.06-0.922,2.06-2.06C327.452,323.424,326.53,322.501,325.392,322.501z"/>
							<path style="fill:none;stroke:#FFFFFF;stroke-miterlimit:10;" d="M325.392,326.622c-0.389,6.676-0.389,33.301-0.389,33.301"
								/>
						</g>
					</g>
				</g>
				<g>
					<g>
						<g>
							<circle style="fill:none;stroke:#FFFFFF;stroke-miterlimit:10;" cx="345.845" cy="295.424" r="2.06"/>
							<path style="fill:none;stroke:#FFFFFF;stroke-miterlimit:10;" d="M345.845,297.484c0.263,11.738,0.263,62.438,0.263,62.438"
								/>
						</g>
						<g>
							<circle style="fill:none;stroke:#FFFFFF;stroke-miterlimit:10;" cx="354.272" cy="309.796" r="2.06"/>
							<path style="fill:none;stroke:#FFFFFF;stroke-miterlimit:10;" d="M354.272,311.856c-0.692,8.159-0.692,48.066-0.692,48.066"
								/>
						</g>
					</g>
					<g>
						<g>
							<circle style="fill:none;stroke:#FFFFFF;stroke-miterlimit:10;" cx="391.787" cy="304.625" r="2.06"/>
							<path style="fill:none;stroke:#FFFFFF;stroke-miterlimit:10;" d="M391.787,306.686c-0.019,11.669-0.019,53.237-0.019,53.237"
								/>
						</g>
						<g>
							<circle style="fill:none;stroke:#FFFFFF;stroke-miterlimit:10;" cx="397.968" cy="324.562" r="2.06"/>
							<path style="fill:none;stroke:#FFFFFF;stroke-miterlimit:10;" d="M397.968,326.622c-0.389,6.676-0.389,33.301-0.389,33.301"
								/>
						</g>
						<g>
							<circle style="fill:none;stroke:#FFFFFF;stroke-miterlimit:10;" cx="370.297" cy="297.984" r="2.06"/>
							<path style="fill:none;stroke:#FFFFFF;stroke-miterlimit:10;" d="M373.879,340.305c-0.805,0.805-0.805,2.109,0,2.914
								s2.109,0.805,2.914,0c0.805-0.805,0.805-2.109,0-2.914C375.988,339.501,374.684,339.501,373.879,340.305z"/>
							<polyline style="fill:none;stroke:#FFFFFF;stroke-miterlimit:10;" points="370.297,300.044 370.297,323.639 370.297,327.053 
								370.297,336.723 373.879,340.305 							"/>
						</g>
					</g>
				</g>
			</g>
			<g>
				<g>
					<g>
						<g>
							<circle style="fill:none;stroke:#FFFFFF;stroke-miterlimit:10;" cx="493.518" cy="304.625" r="2.06"/>
							<path style="fill:none;stroke:#FFFFFF;stroke-miterlimit:10;" d="M493.518,306.686c0.019,11.669,0.019,53.237,0.019,53.237"
								/>
						</g>
						<g>
							<circle style="fill:none;stroke:#FFFFFF;stroke-miterlimit:10;" cx="487.337" cy="324.562" r="2.06"/>
							<path style="fill:none;stroke:#FFFFFF;stroke-miterlimit:10;" d="M487.337,326.622c0.389,6.676,0.389,33.301,0.389,33.301"/>
						</g>
					</g>
				</g>
				<g>
					<g>
						<g>
							<circle style="fill:none;stroke:#FFFFFF;stroke-miterlimit:10;" cx="466.884" cy="295.424" r="2.06"/>
							<path style="fill:none;stroke:#FFFFFF;stroke-miterlimit:10;" d="M466.884,297.484c-0.263,11.738-0.263,62.438-0.263,62.438"
								/>
						</g>
						<g>
							<circle style="fill:none;stroke:#FFFFFF;stroke-miterlimit:10;" cx="458.457" cy="309.796" r="2.06"/>
							<path style="fill:none;stroke:#FFFFFF;stroke-miterlimit:10;" d="M458.457,311.856c0.692,8.159,0.692,48.066,0.692,48.066"/>
						</g>
					</g>
					<g>
						<g>
							<circle style="fill:none;stroke:#FFFFFF;stroke-miterlimit:10;" cx="420.942" cy="304.625" r="2.06"/>
							<path style="fill:none;stroke:#FFFFFF;stroke-miterlimit:10;" d="M420.942,306.686c0.019,11.669,0.019,53.237,0.019,53.237"
								/>
						</g>
						<g>
							<circle style="fill:none;stroke:#FFFFFF;stroke-miterlimit:10;" cx="414.761" cy="324.562" r="2.06"/>
							<path style="fill:none;stroke:#FFFFFF;stroke-miterlimit:10;" d="M414.761,326.622c0.389,6.676,0.389,33.301,0.389,33.301"/>
						</g>
						<g>
							<circle style="fill:none;stroke:#FFFFFF;stroke-miterlimit:10;" cx="442.432" cy="297.984" r="2.06"/>
							<path style="fill:none;stroke:#FFFFFF;stroke-miterlimit:10;" d="M438.85,340.305c0.805,0.805,0.805,2.109,0,2.914
								c-0.805,0.805-2.109,0.805-2.914,0c-0.805-0.805-0.805-2.109,0-2.914C436.741,339.501,438.045,339.501,438.85,340.305z"/>
							<polyline style="fill:none;stroke:#FFFFFF;stroke-miterlimit:10;" points="442.432,300.044 442.432,323.639 442.432,327.053 
								442.432,336.723 438.85,340.305 							"/>
						</g>
					</g>
				</g>
			</g>
		</g>
		<g>
			<g>
				<g>
					<path style="fill:#FFFFFF;" d="M463.425,210.824v43.497h-43.497v-43.497H463.425 M466.425,207.824h-49.497v49.497h49.497
						V207.824L466.425,207.824z"/>
				</g>
			</g>
			<circle style="fill:#FFD74A;" cx="453.267" cy="221.833" r="6.455"/>
			<g>
				<polygon style="fill:#FFFFFF;" points="466.425,257.321 416.927,257.321 435.947,240.303 444.957,248.5 466.425,229.333 				"/>
			</g>
			<g>
				<g>
					<g>
						<path style="fill:#FFA75E;" d="M416.333,216.64c0.838,0.106,1.722-0.141,2.308-0.771c0.718-0.771,0.834-1.944,0.623-2.975
							c-0.276-1.348-1.506-5.071-1.506-5.071h2.229c0,0-0.283-0.673-0.621-1.017c-1.483-1.504-3.165-2.3-4.718-2.089
							c-1.137,0.155-1.881,1.151-2.378,2.102c-0.751,1.435-0.588,3.067-0.066,4.548c0.5,1.42,1.081,2.874,2.064,4.039
							C414.8,216.036,415.498,216.535,416.333,216.64z"/>
						<path style="fill:#273199;" d="M418.42,205.312c-2.477,1.675-4.962,2.612-7.651,2.423c-3.265-7.595-4.92-18.26-4.261-24.334
							c2.019-18.628,18.778-32.24,23.762-36.672c-2.756,4.946-4.417,8.395-3.31,18.887c-4.839,3.382-10.638,12.213-11.828,20.173
							C414.157,192.304,416.957,199.666,418.42,205.312z"/>
					</g>
				</g>
				<g>
					<g>
						<path style="fill:#FFA75E;" d="M467.551,216.64c-0.838,0.106-1.722-0.141-2.308-0.771c-0.718-0.771-0.834-1.944-0.623-2.975
							c0.276-1.348,1.506-5.071,1.506-5.071h-2.229c0,0,0.283-0.673,0.621-1.017c1.483-1.504,3.165-2.3,4.718-2.089
							c1.137,0.155,1.881,1.151,2.378,2.102c0.751,1.435,0.588,3.067,0.066,4.548c-0.5,1.42-1.08,2.874-2.064,4.039
							C469.084,216.036,468.386,216.535,467.551,216.64z"/>
						<path style="fill:#273199;" d="M466.964,205.312c2.477,1.675,4.962,2.612,7.651,2.423c3.265-7.595,4.92-18.26,4.261-24.334
							c-2.019-18.628-18.778-32.24-23.762-36.672c2.756,4.946,4.417,8.395,3.31,18.887c4.839,3.382,10.638,12.213,11.828,20.173
							C471.227,192.304,468.427,199.666,466.964,205.312z"/>
					</g>
				</g>
			</g>
		</g>
		<g>
			<g>
				<g>
					<path style="fill:#FFFFFF;" d="M399.09,210.824v43.497h-43.497v-43.497H399.09 M402.09,207.824h-49.497v49.497h49.497V207.824
						L402.09,207.824z"/>
				</g>
			</g>
			<path style="fill:#FFD74A;" d="M382.478,221.833c0-3.565,2.89-6.455,6.455-6.455c3.565,0,6.455,2.89,6.455,6.455
				c0,3.565-2.89,6.455-6.455,6.455C385.368,228.288,382.478,225.398,382.478,221.833z"/>
			<g>
				<polygon style="fill:#FFFFFF;" points="402.09,257.321 352.592,257.321 371.612,240.303 380.622,248.5 402.09,229.333 				"/>
			</g>
		</g>
		<g>
			<g>
				<g>
					<path style="fill:#FFFFFF;" d="M334.755,210.824v43.497h-43.497v-43.497H334.755 M337.755,207.824h-49.497v49.497h49.497
						V207.824L337.755,207.824z"/>
				</g>
			</g>
			<circle style="fill:#FFD74A;" cx="324.598" cy="221.833" r="6.455"/>
			<g>
				<polygon style="fill:#FFFFFF;" points="337.755,257.321 288.258,257.321 307.277,240.303 316.287,248.5 337.755,229.333 				"/>
			</g>
		</g>
		<g>
			<g>
				<rect x="288.258" y="269.953" style="fill:#FFFFFF;" width="178.527" height="11.838"/>
				<rect x="451.971" y="269.953" style="fill:#FFD74A;" width="14.813" height="11.838"/>
			</g>
			<g>
				<g>
					<path style="fill:#FFFFFF;" d="M462.864,278.585l-1.233-1.233c0.342-0.503,0.543-1.109,0.543-1.762
						c0-1.732-1.409-3.141-3.141-3.141s-3.141,1.409-3.141,3.141c0,1.732,1.409,3.141,3.141,3.141c0.717,0,1.37-0.251,1.899-0.656
						l1.221,1.221L462.864,278.585z M459.033,277.725c-1.178,0-2.136-0.958-2.136-2.136c0-1.178,0.958-2.136,2.136-2.136
						s2.136,0.958,2.136,2.136C461.169,276.767,460.211,277.725,459.033,277.725z"/>
				</g>
				<rect x="292.532" y="272.376" style="fill:#DBE6FF;" width="0.777" height="6.992"/>
			</g>
		</g>
		<g>
			<g>
				<path style="fill:#1783FF;" d="M493.498,338.347c7.807-11.292,19.589-18.624,29.568-23.428
					c4.989-2.384,9.504-4.108,12.781-5.233c3.274-1.127,5.317-1.642,5.317-1.642s0.54,2.021,1.105,5.464
					c0.563,3.441,1.137,8.304,1.152,13.963c0.067,11.3-2.172,25.914-10.562,38.049c-5.493,7.943-12.188,12.971-18.681,16.105
					h-22.385h-0.543h-4.827c-0.738-2.944-1.524-7.086-1.728-11.939C484.323,360.687,485.867,349.381,493.498,338.347z"/>
				<path style="fill:#0077FF;" d="M493.498,338.347c7.807-11.292,19.589-18.624,29.568-23.428
					c4.989-2.384,9.504-4.108,12.781-5.233c3.274-1.127,5.317-1.642,5.317-1.642s-42.877,70.446-49.37,73.581l0,0h-0.543h-4.827
					c-0.738-2.944-1.524-7.086-1.728-11.939C484.323,360.687,485.867,349.381,493.498,338.347z"/>
			</g>
			<g>
				<g>
					<rect x="303.304" y="335.291" style="fill:#273199;" width="101.904" height="57.528"/>
					<rect x="303.304" y="384.317" style="fill:#142099;" width="101.904" height="8.502"/>
					<g>
						<g>
							<path style="fill:#3542CF;" d="M391.358,339.636h-42.33h-2.272h-29.601c-5.241,0-9.506,4.265-9.506,9.506v24.049h39.107
								h2.272h51.835v-24.049C400.863,343.901,396.599,339.636,391.358,339.636z"/>
							<g>
								<g>
									<g>
										<rect x="351.908" y="343.74" style="fill:#FFD74A;" width="3.621" height="3.621"/>
										<rect x="351.908" y="350.982" style="fill:#1783FF;" width="3.621" height="3.621"/>
										<rect x="351.908" y="358.224" style="fill:#FFD74A;" width="3.621" height="3.621"/>
										<rect x="351.908" y="365.466" style="fill:#1783FF;" width="3.621" height="3.621"/>
									</g>
									<g>
										<rect x="358.607" y="343.74" style="fill:#FFFFFF;" width="3.621" height="3.621"/>
										<rect x="358.607" y="350.982" style="fill:#FFD74A;" width="3.621" height="3.621"/>
										<rect x="358.607" y="358.224" style="fill:#1783FF;" width="3.621" height="3.621"/>
										<rect x="358.607" y="365.466" style="fill:#FFFFFF;" width="3.621" height="3.621"/>
									</g>
									<g>
										<rect x="365.306" y="343.74" style="fill:#1783FF;" width="3.621" height="3.621"/>
										<rect x="365.306" y="350.982" style="fill:#FFFFFF;" width="3.621" height="3.621"/>
										<rect x="365.306" y="358.224" style="fill:#1783FF;" width="3.621" height="3.621"/>
										<rect x="365.306" y="365.466" style="fill:#FFD74A;" width="3.621" height="3.621"/>
									</g>
								</g>
								<g>
									<rect x="372.004" y="343.74" style="fill:#142099;" width="16.586" height="3.621"/>
									<rect x="372.004" y="350.982" style="fill:#142099;" width="16.586" height="3.621"/>
									<rect x="372.004" y="358.224" style="fill:#142099;" width="16.586" height="3.621"/>
									<rect x="372.004" y="365.466" style="fill:#142099;" width="16.586" height="3.621"/>
								</g>
							</g>
							<circle style="fill:#142099;" cx="326.207" cy="356.414" r="11.567"/>
							<circle style="fill:#141B5E;" cx="326.207" cy="356.414" r="5.431"/>
						</g>
						<g>
							<rect x="307.649" y="377.476" style="fill:#FFD74A;" width="12.014" height="2.173"/>
							<rect x="327.511" y="377.476" style="fill:#FFD74A;" width="12.014" height="2.173"/>
							<rect x="347.373" y="377.476" style="fill:#FFFFFF;" width="12.014" height="2.173"/>
							<polygon style="fill:#1783FF;" points="390.646,377.476 388.849,377.476 367.235,377.476 367.235,379.649 388.849,379.649 
								390.646,379.649 400.863,379.649 400.863,377.476 							"/>
						</g>
					</g>
				</g>
				<g>
					<rect x="400.959" y="335.291" style="fill:#273199;" width="101.904" height="57.528"/>
					<rect x="400.959" y="384.317" style="fill:#142099;" width="101.904" height="8.502"/>
					<g>
						<g>
							<path style="fill:#3542CF;" d="M489.013,339.636h-42.33h-2.272H414.81c-5.241,0-9.506,4.265-9.506,9.506v24.049h39.107h2.272
								h51.835v-24.049C498.518,343.901,494.254,339.636,489.013,339.636z"/>
							<g>
								<g>
									<g>
										<rect x="449.563" y="343.74" style="fill:#FFD74A;" width="3.621" height="3.621"/>
										<rect x="449.563" y="350.982" style="fill:#1783FF;" width="3.621" height="3.621"/>
										<rect x="449.563" y="358.224" style="fill:#FFD74A;" width="3.621" height="3.621"/>
										<rect x="449.563" y="365.466" style="fill:#1783FF;" width="3.621" height="3.621"/>
									</g>
									<g>
										<rect x="456.262" y="343.74" style="fill:#FFFFFF;" width="3.621" height="3.621"/>
										<rect x="456.262" y="350.982" style="fill:#FFD74A;" width="3.621" height="3.621"/>
										<rect x="456.262" y="358.224" style="fill:#1783FF;" width="3.621" height="3.621"/>
										<rect x="456.262" y="365.466" style="fill:#FFFFFF;" width="3.621" height="3.621"/>
									</g>
									<g>
										<rect x="462.96" y="343.74" style="fill:#1783FF;" width="3.621" height="3.621"/>
										<rect x="462.96" y="350.982" style="fill:#FFFFFF;" width="3.621" height="3.621"/>
										<rect x="462.96" y="358.224" style="fill:#1783FF;" width="3.621" height="3.621"/>
										<rect x="462.96" y="365.466" style="fill:#FFD74A;" width="3.621" height="3.621"/>
									</g>
								</g>
								<g>
									<rect x="469.659" y="343.74" style="fill:#1E2778;" width="16.586" height="3.621"/>
									<rect x="469.659" y="350.982" style="fill:#1E2778;" width="16.586" height="3.621"/>
									<rect x="469.659" y="358.224" style="fill:#1E2778;" width="16.586" height="3.621"/>
									<rect x="469.659" y="365.466" style="fill:#1E2778;" width="16.586" height="3.621"/>
								</g>
							</g>
							<circle style="fill:#142099;" cx="423.862" cy="356.414" r="11.567"/>
							<circle style="fill:#141B5E;" cx="423.862" cy="356.414" r="5.431"/>
						</g>
						<g>
							<rect x="405.304" y="377.476" style="fill:#FFD74A;" width="12.014" height="2.173"/>
							<rect x="425.166" y="377.476" style="fill:#FFD74A;" width="12.014" height="2.173"/>
							<rect x="445.028" y="377.476" style="fill:#FFFFFF;" width="12.014" height="2.173"/>
							<polygon style="fill:#1783FF;" points="488.301,377.476 486.504,377.476 464.89,377.476 464.89,379.649 486.504,379.649 
								488.301,379.649 498.518,379.649 498.518,377.476 							"/>
						</g>
					</g>
				</g>
			</g>
			<g>
				<path style="fill:#FFD74A;" d="M552.414,351.053c-2.758,0.118-6.597,0.414-10.947,1.106
					c-8.709,1.413-19.367,4.348-27.885,11.208c-8.325,6.703-12.062,14.989-13.813,21.947c-0.703,2.802-1.068,5.375-1.251,7.504
					h39.23c8.994-7.364,13.948-17.9,16.43-26.467c1.268-4.326,1.93-8.171,2.278-10.927c0.347-2.758,0.391-4.423,0.391-4.423
					S555.17,350.933,552.414,351.053z"/>
				<path style="fill:#FFCD1C;" d="M507.89,392.819c14.199-10.324,48.957-41.817,48.957-41.817s-1.677-0.069-4.433,0.052
					c-2.758,0.118-6.597,0.414-10.947,1.106c-8.709,1.413-19.367,4.348-27.885,11.208c-8.325,6.703-12.062,14.989-13.813,21.947
					c-0.703,2.802-1.068,5.375-1.251,7.504H507.89z"/>
			</g>
			<g>
				<path style="fill:#FFD74A;" d="M272.47,361.898c2.042,0.087,4.884,0.306,8.104,0.819c6.448,1.046,14.338,3.219,20.645,8.298
					c6.163,4.962,8.93,11.097,10.227,16.249c0.52,2.075,0.791,3.979,0.926,5.555h-29.044c-6.659-5.452-10.326-13.252-12.164-19.595
					c-0.939-3.203-1.429-6.05-1.687-8.09c-0.257-2.042-0.29-3.275-0.29-3.275S270.43,361.809,272.47,361.898z"/>
				<path style="fill:#FFCD1C;" d="M305.433,392.819c-10.512-7.644-36.245-30.959-36.245-30.959s1.241-0.051,3.282,0.038
					c2.042,0.087,4.884,0.306,8.104,0.819c6.448,1.046,14.338,3.219,20.645,8.298c6.163,4.962,8.93,11.097,10.227,16.249
					c0.52,2.075,0.791,3.979,0.926,5.555H305.433z"/>
			</g>
		</g>
		<g>
			<g>
				<circle style="fill:#1783FF;" cx="168.039" cy="187.985" r="22.73"/>
				<g>
					<path style="fill:#FFFFFF;" d="M177.385,196.895l-0.792-1.244c0.618-0.689,1.143-1.443,1.571-2.242l1.44,0.32
						c0.614,0.137,1.223-0.251,1.359-0.865l0.85-3.827c0.136-0.614-0.251-1.223-0.865-1.359l-1.44-0.32
						c-0.049-0.905-0.206-1.81-0.474-2.696l1.244-0.792c0.531-0.338,0.687-1.042,0.349-1.573l-2.105-3.307
						c-0.338-0.531-1.042-0.687-1.573-0.349l-1.244,0.792c-0.689-0.618-1.443-1.143-2.242-1.571l0.32-1.44
						c0.136-0.614-0.251-1.223-0.865-1.359l-3.827-0.85c-0.614-0.136-1.223,0.251-1.359,0.865l-0.32,1.44
						c-0.905,0.049-1.81,0.206-2.696,0.474l-0.792-1.244c-0.338-0.531-1.042-0.687-1.573-0.349l-3.307,2.105
						c-0.531,0.338-0.687,1.042-0.349,1.573l0.792,1.244c-0.618,0.689-1.143,1.443-1.571,2.242l-1.44-0.32
						c-0.614-0.136-1.223,0.251-1.359,0.865l-0.85,3.827c-0.136,0.614,0.251,1.223,0.865,1.359l1.44,0.32
						c0.049,0.905,0.206,1.81,0.474,2.696l-1.244,0.792c-0.531,0.338-0.687,1.042-0.349,1.573l2.105,3.307
						c0.338,0.531,1.042,0.687,1.573,0.349l1.244-0.792c0.689,0.618,1.443,1.143,2.242,1.571l-0.32,1.44
						c-0.136,0.614,0.251,1.223,0.865,1.359l3.827,0.85c0.614,0.136,1.223-0.251,1.359-0.865l0.32-1.44
						c0.905-0.049,1.81-0.206,2.696-0.474l0.792,1.244c0.338,0.531,1.042,0.687,1.573,0.349l3.307-2.105
						C177.567,198.13,177.723,197.426,177.385,196.895z M161.81,191.951c-2.19-3.44-1.176-8.004,2.264-10.194
						c3.44-2.19,8.004-1.176,10.194,2.264c2.19,3.44,1.176,8.004-2.264,10.194C168.564,196.404,164,195.391,161.81,191.951z"/>
					<path style="fill:#FFFFFF;" d="M170.654,186.321c-0.919-1.444-2.835-1.869-4.279-0.95c-1.444,0.919-1.87,2.835-0.95,4.279
						s2.835,1.869,4.279,0.95C171.148,189.681,171.573,187.765,170.654,186.321z"/>
				</g>
			</g>
			<g>
				<path style="fill:#FFD74A;" d="M183.394,179.673L183.394,179.673c-2.071-2.071-2.071-5.428,0-7.499l0,0
					c2.071-2.071,5.428-2.071,7.499,0h0c2.071,2.071,2.071,5.429,0,7.499h0C188.822,181.744,185.464,181.744,183.394,179.673z"/>
				<polygon style="fill:#FFFFFF;" points="190.443,175.497 187.569,175.497 187.569,172.623 186.717,172.623 186.717,175.497 
					183.843,175.497 183.843,176.349 186.717,176.349 186.717,179.223 187.569,179.223 187.569,176.349 190.443,176.349 				"/>
			</g>
		</g>
		<g>
			<rect x="95.588" y="389.521" style="fill:#1783FF;" width="558.824" height="8.967"/>
			<g>
				<path style="fill:#1783FF;" d="M654.36,360.362c-0.749-5.109-8.292-3.76-11.948-3.019c-9.107,1.846-16.481,7.014-22.819,13.429
					l16.483-23.892c2.198-3.186,4.397-6.373,6.595-9.559c1.651-2.393,4.236-5.238,4.286-8.349c0.066-4.117-4.128-6.14-7.77-5.588
					c-5.123,0.775-10.074,5.274-13.579,8.856c-4.319,4.414-7.76,9.663-10.399,15.232c-5.174,10.915-6.297,16.052-7.698,27.978
					c-1.084-6.412-6.543-19.957-11.622-17.226c-8.296,4.461,9.461,31.31,9.461,31.31h11.101
					C616.452,389.533,656.037,371.796,654.36,360.362z"/>
				<path style="fill:#1783FF;" d="M95.627,367.559c0.564-3.848,6.246-2.832,9-2.274c6.86,1.391,12.415,5.284,17.189,10.116
					L109.4,357.403c-1.656-2.4-3.312-4.801-4.968-7.201c-1.243-1.802-3.191-3.946-3.229-6.289c-0.05-3.102,3.109-4.625,5.853-4.21
					c3.859,0.584,7.589,3.973,10.229,6.671c3.254,3.325,5.845,7.279,7.833,11.474c3.897,8.222,4.743,12.092,5.799,21.076
					c0.817-4.83,4.929-15.034,8.755-12.976c6.25,3.36-7.127,23.585-7.127,23.585h-8.362
					C124.183,389.533,94.364,376.172,95.627,367.559z"/>
			</g>
		</g>
		<g>
			<g>
				<g>
					<path style="fill:#FFA75E;" d="M251.548,270.77c-4.087-0.286-8.153-0.857-12.162-1.711c-0.264,2.674-0.05,5.55,0.121,7.829
						c3.635,0.579,7.315,0.906,11.014,1.012C251.313,275.688,252.118,273.067,251.548,270.77z"/>
					<g>
						<path style="fill:#1783FF;" d="M200.527,249.362c12.521,10.383,27.9,17.162,44.072,19.283
							c-0.331,3.483-1.705,6.909-4.142,9.046c-19.773-2.255-38.475-11.394-52.409-25.6c0.155-0.304,0.318-0.597,0.488-0.879
							C191.059,247.026,196.765,246.243,200.527,249.362z"/>
						<g>
							<g>
								<g>
									<g>
										<polygon style="fill:#FFA75E;" points="201.249,372.126 208.315,372.126 208.457,383.082 220.407,387.288 
											220.407,389.521 200.967,389.521 201.888,387.288 										"/>
										<polygon style="fill:#142099;" points="208.457,383.082 220.407,387.288 220.407,389.521 200.967,389.521 
											200.967,387.288 201.43,383.082 										"/>
									</g>
									<g>
										<polygon style="fill:#FFA75E;" points="160.849,372.126 167.915,372.126 163.926,383.082 175.876,387.288 
											175.876,389.521 156.435,389.521 157.357,387.288 										"/>
										<polygon style="fill:#142099;" points="163.926,383.082 175.876,387.288 175.876,389.521 156.435,389.521 
											156.435,387.288 157.838,383.082 										"/>
									</g>
								</g>
								<g>
									<path style="fill:#FFCD1C;" d="M189.138,306.305v-7.434h16.193c0,0,3.86,26.606,3.436,73.76h-8.195
										c0,0-3.146-34.962-11.373-66.759l0,0C189.179,306.016,189.157,306.16,189.138,306.305z"/>
									<path style="fill:#FFCD1C;" d="M173.501,298.871L173.501,298.871l18.378,0c-6.932,30.641-23.508,73.76-23.508,73.76h-8.226
										C160.146,372.63,171.32,322.838,173.501,298.871z"/>
									<path style="fill:#FFD74A;" d="M179.934,298.871l4.501,0c-6.932,30.641-19.4,73.76-19.4,73.76h-2.328
										C162.707,372.63,177.753,322.838,179.934,298.871z"/>
								</g>
							</g>
							<g>
								<path style="fill:#1783FF;" d="M189.01,244.048h0.996c0.262,0,0.524,0.007,0.785,0.021
									c6.406,0.343,11.396,6.401,11.814,12.743c0.031,0.472,4.093,42.059,4.093,42.059H171.32l3.999-42.059
									c0.213-7.099,5.742-12.395,12.974-12.747C188.532,244.054,188.77,244.048,189.01,244.048z"/>
							</g>
						</g>
						<g>
							<g>
								<path style="fill:#273199;" d="M187.592,212.733c3.377-0.195,6.914,0.591,9.634,2.623c1.321,0.987,2.194,2.272,2.607,3.869
									c0.352,1.36,0.409,2.766,0.641,4.146c0.457,2.721,3.366,3.569,4.854,5.618c0.476,0.655,0.822,1.401,0.984,2.195
									c0.195,0.962,0.011,1.77-0.251,2.689c-0.38,1.333-0.414,2.379,0.526,3.468c1.109,1.285,2.235,2.421,2.407,4.219
									c0.061,0.639-0.015,1.25-0.196,1.824h-21.206V212.733z"/>
								<path style="fill:#FFA75E;" d="M181.495,223.712c0-5.992,4.8-10.863,10.765-10.977c6.155-0.118,11.193,5.037,11.193,11.193
									c0,2.176,0,4.749,0,7.236c0,5.563-4.509,10.071-10.072,10.071h-0.41v3.935c0,2.741-2.222,4.963-4.963,4.963l0,0
									c-2.741,0-4.963-2.222-4.963-4.963v-6.697c0-4.123-0.333-8.255-1.267-12.271
									C181.594,225.403,181.495,224.569,181.495,223.712z"/>
								<path style="fill:#273199;" d="M169.438,241.559c0.172-1.798,1.298-2.934,2.407-4.219c0.94-1.089,0.906-2.135,0.526-3.468
									c-0.262-0.92-0.446-1.727-0.251-2.689c0.161-0.794,0.508-1.54,0.984-2.195c1.488-2.048,4.397-2.897,4.854-5.618
									c0.326-1.942,0.472-3.947,1.289-5.767c2.429-5.409,10.501-7.051,15.782-5.908c5.667,1.226,9.735,6.472,9.735,12.232v2.287
									h-16.758v17.169h-18.371C169.453,242.809,169.377,242.199,169.438,241.559z"/>
							</g>
							<path style="fill:#FFA75E;" d="M187.519,228.984c0.611,0,1.164,0.232,1.593,0.603v3.693c-0.429,0.37-0.981,0.603-1.593,0.603
								c-1.353,0-2.449-1.096-2.449-2.449C185.07,230.081,186.166,228.984,187.519,228.984z"/>
						</g>
					</g>
				</g>
				<path style="fill:#FFA75E;" d="M197.538,313.642c0.337-0.299,0.367-0.815,0.068-1.151c0,0-3.753-4.455-3.699-4.51
					c0.063-0.065,3.493,3.526,3.493,3.526c0.299,0.337,0.815,0.367,1.151,0.068c0.337-0.299,0.367-0.814,0.068-1.151l-3.452-3.885
					c0.053-0.066-3.547-3.989-3.032-4.988c0.372-0.721,2.016-1.639,2.236-2.547c0.076-0.313,0.021-0.972-0.294-0.841
					c-0.901,0.372-3.212,1.676-5.325,1.493c-0.149-0.013-0.304-0.011-0.461-0.003c-2.866-3.142-5.498-6.496-7.879-10.023
					c-2.045,1.742-3.887,3.962-5.346,5.721c2.479,3.289,5.205,6.401,8.15,9.316c1.886,3.358,3.883,5.437,5.672,7.044l0.01-0.005
					l2.784,3.133c0.299,0.337,0.814,0.367,1.151,0.068c0.337-0.299,0.367-0.815,0.068-1.151c0,0-2.392-2.966-2.312-3.013
					c0.073-0.042,3.902,4.019,3.902,4.019c0.299,0.337,0.814,0.367,1.151,0.068c0.336-0.299,0.367-0.814,0.068-1.151
					c0,0-3.475-4.146-3.413-4.195c0.089-0.071,4.091,4.09,4.091,4.09C196.686,313.911,197.202,313.941,197.538,313.642z"/>
				<g>
					<g>
						<path style="fill:#1783FF;" d="M178.884,248.201l-0.424,14.087c-4.078,4.593-7.2,9.411-6.949,14.425
							c0.229,2.341,9.898,13.766,16.397,21.246c-1.688,2.918-4.413,4.826-7.818,5.479c-6.17-7.451-18.633-19.542-19.061-26.798
							C160.437,266.595,170.096,255.507,178.884,248.201z"/>
						<path style="fill:#3542CF;" d="M178.46,262.288c-4.078,4.593-7.2,9.411-6.949,14.425c0.229,2.341,9.898,13.766,16.397,21.246
							c0,0-17.065-14.884-17.493-22.14C170.674,268.363,178.46,262.288,178.46,262.288z"/>
					</g>
				</g>
			</g>
			<g>
				<g>
					<g>
						<path style="fill:#FFA75E;" d="M257.431,269.753c0.74,0.645,0.893,1.691,1.335,2.569c0.226,0.449,0.544,1.008,0.311,1.503
							c-0.22,0.469-0.81,0.577-1.319,0.415c-0.61-0.195-1.018-0.667-1.198-1.209c-0.088,1.413-0.198,2.846-0.651,4.209
							c-0.295,0.889-0.489,1.813-1.671,1.839c-1.114,0.024-3.124-0.415-3.974-1.098c-1.043-0.838-0.909-2.346-0.782-3.454
							c0.262-2.279,1.316-4.875,4.205-5.37c0.925-0.159,1.94-0.129,2.841,0.124C256.907,269.386,257.198,269.55,257.431,269.753z"/>
						<g>
							<g>
								<path style="fill:#FFFFFF;" d="M259.581,253.87l-0.949,3.212l1.642,2.505l2.74-1.21l0.949-3.211l1.257,3.436l-0.96,3.248
									l-2.882,1.31l-5.554,19.57c-0.332,1.122-1.51,1.762-2.632,1.431l0,0c-1.073-0.317-1.685-1.444-1.368-2.517l5.581-19.658
									l-1.706-2.666l0.96-3.248L259.581,253.87z"/>
							</g>
							<path style="fill:#FFD74A;" d="M254.865,281.556c-0.336-0.617-1.108-0.846-1.726-0.51c-0.618,0.336-0.846,1.108-0.51,1.726
								c0.336,0.617,1.109,0.846,1.726,0.51C254.972,282.947,255.201,282.174,254.865,281.556z"/>
						</g>
						<path style="fill:#FF9B47;" d="M254.254,269.637l4.661,0.77c4.28,0.686,1.394,9.679-3.445,8.967l-3.125-0.516
							c-0.751-0.124-1.244-0.754-1.101-1.407c0.119-0.544,0.641-0.927,1.246-0.97c-0.563-0.226-0.902-0.76-0.781-1.314
							c0.119-0.544,0.641-0.927,1.246-0.97c-0.563-0.226-0.902-0.76-0.781-1.314c0.119-0.544,0.641-0.927,1.246-0.97
							c-0.563-0.226-0.902-0.76-0.781-1.314C252.779,269.942,253.503,269.513,254.254,269.637z"/>
						<path style="fill:#FFA75E;" d="M256.529,269.28c0.377,0.106,0.669,0.27,0.902,0.473c0.74,0.645,0.893,1.691,1.335,2.569
							c0.226,0.449,0.545,1.008,0.311,1.503c-0.22,0.469-0.81,0.577-1.319,0.415c-0.654-0.209-0.982-0.783-1.347-1.255
							c-0.327-0.423-1.183-1.182-2.916-1.053c-1.582,0.118-3.639,1.141-3.972,2.301c0.318-2.203,1.399-4.602,4.165-5.076
							C254.614,268.998,255.629,269.027,256.529,269.28z"/>
					</g>
				</g>
			</g>
		</g>
		<g>
			<g>
				<g>
					<g>
						<g>
							<path style="fill:#141B5E;" d="M289.833,307.706h-7.903c-1.783,0-3.229-1.445-3.229-3.229l0,0
								c0-1.783,1.445-3.228,3.229-3.228h7.903c1.783,0,3.228,1.445,3.228,3.228l0,0
								C293.061,306.261,291.616,307.706,289.833,307.706z"/>
							<g>
								<path style="fill:#FFFFFF;" d="M279.452,304.478c0-1.333,1.081-2.415,2.415-2.415c1.333,0,2.415,1.081,2.415,2.415
									c0,1.334-1.081,2.415-2.415,2.415C280.534,306.892,279.452,305.811,279.452,304.478z"/>
							</g>
						</g>
						<g>
							<path style="fill:#1783FF;" d="M281.929,309.949h7.903c1.783,0,3.228,1.445,3.228,3.229l0,0c0,1.783-1.445,3.228-3.228,3.228
								h-7.903c-1.783,0-3.229-1.445-3.229-3.228l0,0C278.701,311.395,280.146,309.949,281.929,309.949z"/>
							<g>
								<path style="fill:#FFFFFF;" d="M292.309,313.178c0,1.333-1.081,2.415-2.415,2.415c-1.334,0-2.415-1.081-2.415-2.415
									c0-1.334,1.081-2.415,2.415-2.415C291.228,310.763,292.309,311.844,292.309,313.178z"/>
							</g>
						</g>
					</g>
					<g>
						<g>
							<path style="fill:#141B5E;" d="M289.833,325.144h-7.903c-1.783,0-3.229-1.445-3.229-3.228l0,0
								c0-1.783,1.445-3.229,3.229-3.229h7.903c1.783,0,3.228,1.445,3.228,3.229l0,0
								C293.061,323.698,291.616,325.144,289.833,325.144z"/>
							<g>
								<path style="fill:#FFFFFF;" d="M279.452,321.915c0-1.334,1.081-2.415,2.415-2.415c1.333,0,2.415,1.081,2.415,2.415
									c0,1.334-1.081,2.415-2.415,2.415C280.534,324.33,279.452,323.249,279.452,321.915z"/>
							</g>
						</g>
						<g>
							<path style="fill:#1783FF;" d="M281.929,327.387h7.903c1.783,0,3.228,1.446,3.228,3.229l0,0c0,1.783-1.445,3.228-3.228,3.228
								h-7.903c-1.783,0-3.229-1.445-3.229-3.228l0,0C278.701,328.833,280.146,327.387,281.929,327.387z"/>
							<g>
								<path style="fill:#FFFFFF;" d="M292.309,330.616c0,1.334-1.081,2.415-2.415,2.415c-1.334,0-2.415-1.081-2.415-2.415
									c0-1.333,1.081-2.415,2.415-2.415C291.228,328.201,292.309,329.282,292.309,330.616z"/>
							</g>
						</g>
					</g>
					<g>
						<g>
							<path style="fill:#141B5E;" d="M289.833,342.582h-7.903c-1.783,0-3.229-1.446-3.229-3.229l0,0
								c0-1.783,1.445-3.229,3.229-3.229h7.903c1.783,0,3.228,1.445,3.228,3.229l0,0
								C293.061,341.136,291.616,342.582,289.833,342.582z"/>
							<g>
								<path style="fill:#FFFFFF;" d="M279.452,339.353c0-1.334,1.081-2.415,2.415-2.415c1.333,0,2.415,1.081,2.415,2.415
									c0,1.333-1.081,2.415-2.415,2.415C280.534,341.768,279.452,340.686,279.452,339.353z"/>
							</g>
						</g>
						<g>
							<path style="fill:#1783FF;" d="M281.929,344.825h7.903c1.783,0,3.228,1.445,3.228,3.229l0,0c0,1.783-1.445,3.228-3.228,3.228
								h-7.903c-1.783,0-3.229-1.445-3.229-3.228l0,0C278.701,346.27,280.146,344.825,281.929,344.825z"/>
							<g>
								<path style="fill:#FFFFFF;" d="M292.309,348.053c0,1.334-1.081,2.415-2.415,2.415c-1.334,0-2.415-1.081-2.415-2.415
									c0-1.334,1.081-2.415,2.415-2.415C291.228,345.639,292.309,346.72,292.309,348.053z"/>
							</g>
						</g>
					</g>
				</g>
				<rect x="256.477" y="302.014" style="fill:#FFFFFF;" width="17.93" height="4.928"/>
				<rect x="256.477" y="310.714" style="fill:#FFCD1C;" width="17.93" height="4.928"/>
				<rect x="256.477" y="319.414" style="fill:#FFFFFF;" width="17.93" height="4.928"/>
				<rect x="256.477" y="328.115" style="fill:#FFFFFF;" width="17.93" height="4.928"/>
				<rect x="256.477" y="336.815" style="fill:#FFCD1C;" width="17.93" height="4.928"/>
				<rect x="256.477" y="345.515" style="fill:#FFCD1C;" width="17.93" height="4.928"/>
			</g>
		</g>
		<g>
			<g>
				<path style="fill:#FFD74A;" d="M146.559,280.86c0.007-0.377,0.004-0.757-0.009-1.138c-0.387-11.722-10.029-21.168-21.756-21.33
					c-12.337-0.17-22.391,9.78-22.391,22.077c0,0.159,0.002,0.318,0.005,0.477c0.022,1.028,0.119,2.048,0.289,3.055
					c0.637,3.781,2.342,7.302,4.815,10.232l16.97,20.105l16.976-20.111c2.373-2.811,4.041-6.165,4.729-9.779
					C146.412,283.268,146.538,282.069,146.559,280.86z"/>
				
					<ellipse transform="matrix(0.1602 -0.9871 0.9871 0.1602 -172.3039 358.419)" style="fill:#FFFFFF;" cx="124.483" cy="280.469" rx="17.96" ry="17.96"/>
			</g>
			<path style="fill:#4AB7FF;" d="M130.032,271.776c-2.516,0-4.665,1.556-5.548,3.756c-0.883-2.201-3.032-3.756-5.548-3.756
				c-3.303,0-5.98,2.677-5.98,5.98c0,8.19,11.528,14.663,11.528,14.663s11.528-7.265,11.528-14.663
				C136.012,274.453,133.334,271.776,130.032,271.776z"/>
		</g>
		<g>
			<g>
				
					<rect x="549.655" y="219.179" transform="matrix(0.9901 0.1407 -0.1407 0.9901 41.5662 -78.2215)" style="fill:#0077FF;" width="48.992" height="71.531"/>
				<path style="fill:#FFFFFF;" d="M575.62,226.964c0.193-1.357,1.449-2.301,2.806-2.108c1.357,0.193,2.301,1.449,2.108,2.806
					c-0.193,1.357-1.449,2.301-2.806,2.108C576.371,229.578,575.427,228.322,575.62,226.964z"/>
			</g>
			<g>
				<g>
					<g>
						<g>
							<path style="fill:#FFFFFF;" d="M563.393,234.516l3.443,4.583l-1.135,4.999l-5.117-0.302l-3.443-4.583l0.039,6.262
								l3.482,4.635l5.405,0.378l13.828,18.408c1.203,1.601,3.475,1.924,5.076,0.721l0,0c1.531-1.15,1.839-3.323,0.69-4.854
								l-13.924-18.535l1.142-5.296l-3.482-4.635L563.393,234.516z"/>
						</g>
						<path style="fill:#FFD74A;" d="M580.731,266.442c0.169-1.191,1.272-2.019,2.463-1.85c1.191,0.169,2.019,1.272,1.85,2.463
							c-0.169,1.191-1.272,2.019-2.463,1.85C581.39,268.736,580.562,267.633,580.731,266.442z"/>
					</g>
					<g>
						<g>
							<path style="fill:#FFD74A;" d="M590.173,238.32l-4.583,3.443l-0.302,5.117l4.999,1.135l4.583-3.443l-1.781,6.004
								l-4.635,3.482l-5.296-1.142l-18.408,13.829c-1.601,1.203-3.874,0.88-5.076-0.721l0,0c-1.15-1.531-0.841-3.704,0.69-4.854
								l18.535-13.924l0.378-5.405l4.635-3.482L590.173,238.32z"/>
						</g>
						<path style="fill:#0077FF;" d="M564.63,264.155c0.169-1.191-0.659-2.294-1.85-2.463c-1.191-0.169-2.294,0.659-2.463,1.85
							c-0.169,1.191,0.659,2.294,1.85,2.463C563.358,266.174,564.461,265.346,564.63,264.155z"/>
					</g>
				</g>
				
					<rect x="551.805" y="274.166" transform="matrix(0.9901 0.1407 -0.1407 0.9901 44.8062 -77.6226)" style="fill:#1783FF;" width="39.462" height="8"/>
			</g>
		</g>
		<g>
			<polygon style="fill:#FFD74A;" points="392.125,92.232 320.54,92.232 320.54,123.671 367.212,123.671 374.003,143.938 
				380.794,123.671 392.125,123.671 			"/>
			<g>
				<rect x="325.631" y="100.5" style="fill:#FFFFFF;" width="61.404" height="5.333"/>
				<rect x="325.631" y="110" style="fill:#FFFFFF;" width="51.672" height="5.333"/>
			</g>
		</g>
	</g>
</g>
</svg>
